<?xml version="1.0" standalone="no"?>
<!DOCTYPE svg PUBLIC "-//W3C//DTD SVG 20010904//EN"
 "http://www.w3.org/TR/2001/REC-SVG-20010904/DTD/svg10.dtd">
<svg version="1.0" xmlns="http://www.w3.org/2000/svg"
 width="16.000000pt" height="16.000000pt" viewBox="0 0 16.000000 16.000000"
 preserveAspectRatio="xMidYMid meet">
<metadata>
Created by potrace 1.11, written by Peter Selinger 2001-2013
</metadata>
<g transform="translate(0.000000,16.000000) scale(0.008743,-0.008743)"
fill="#000000" stroke="none">
<path d="M245 1160 l-240 -240 241 -241 c223 -223 243 -240 272 -237 31 3 26
9 -204 241 l-236 238 234 235 c128 129 235 237 237 239 2 3 -11 5 -30 5 -31 0
-54 -20 -274 -240z"/>
<path d="M1385 1289 c61 -61 168 -169 238 -239 l128 -128 -235 -239 c-230
-232 -235 -238 -204 -241 29 -3 49 14 272 237 l241 241 -240 240 c-222 222
-243 240 -275 240 l-35 0 110 -111z"/>
<path d="M565 938 c1 -189 3 -348 4 -354 1 -9 96 -11 351 -10 l350 1 0 31 0
31 -320 -1 c-215 -1 -320 2 -321 9 -1 5 -3 129 -4 275 -2 146 -4 286 -4 313
-1 45 -2 47 -30 47 l-30 0 4 -342z"/>
</g>
</svg>
